<?xml version="1.0" ?><svg viewBox="0 0 64 64" xmlns="http://www.w3.org/2000/svg"><title/><g id="pizza"><circle cx="25.87" cy="32.587" r="25.046" style="fill:#c1dbdc"/><path d="M34.669,52.461A40.554,40.554,0,0,1,10.8,44.727l-2.4,4.13a4.946,4.946,0,0,0,1.835,6.8,50.285,50.285,0,0,0,47.585.7A4.958,4.958,0,0,0,59.8,49.47l-2.319-3.988A40.558,40.558,0,0,1,34.669,52.461Z" style="fill:#fc8c29;stroke:#4c241d;stroke-linecap:round;stroke-linejoin:round;stroke-width:2px"/><path d="M57.479,45.482,35.7,8.027a2.064,2.064,0,0,0-3.569,0L10.8,44.727a40.736,40.736,0,0,0,46.682.755Z" style="fill:#ffce56;stroke:#4c241d;stroke-linecap:round;stroke-linejoin:round;stroke-width:2px"/><path d="M40.583,16.42,35.7,8.027a2.064,2.064,0,0,0-3.569,0L27.789,15.5a7.673,7.673,0,0,0,12.794.919Z" style="fill:#e66353;stroke:#4c241d;stroke-linecap:round;stroke-linejoin:round;stroke-width:2px"/><path d="M34.7,35.341a1.488,1.488,0,0,1-2.976,0" style="fill:none;stroke:#4c241d;stroke-linecap:round;stroke-linejoin:round;stroke-width:2px"/><path d="M37.991,32.887a1.887,1.887,0,0,1,3.774,0" style="fill:none;stroke:#4c241d;stroke-linecap:round;stroke-linejoin:round;stroke-width:2px"/><line style="fill:none;stroke:#f53e28;stroke-linecap:round;stroke-linejoin:round;stroke-width:2px" x1="38.843" x2="41.949" y1="36.085" y2="36.085"/><path d="M24.532,32.887a1.887,1.887,0,0,1,3.774,0" style="fill:none;stroke:#4c241d;stroke-linecap:round;stroke-linejoin:round;stroke-width:2px"/><line style="fill:none;stroke:#f53e28;stroke-linecap:round;stroke-linejoin:round;stroke-width:2px" x1="24.348" x2="27.454" y1="36.085" y2="36.085"/><path d="M50,41a4.966,4.966,0,0,0,3.821-1.811l-4.709-8.1A4.994,4.994,0,0,0,50,41Z" style="fill:#e66353;stroke:#4c241d;stroke-linecap:round;stroke-linejoin:round;stroke-width:2px"/><path d="M15.971,47.914a5.992,5.992,0,0,0-.138-11.849L10.8,44.727A40.813,40.813,0,0,0,15.971,47.914Z" style="fill:#e66353;stroke:#4c241d;stroke-linecap:round;stroke-linejoin:round;stroke-width:2px"/><path d="M45.339,51.049c0-.017,0-.033,0-.049a6.341,6.341,0,1,0-12.518,1.416c.613.027,1.227.045,1.846.045A40.81,40.81,0,0,0,45.339,51.049Z" style="fill:#e66353;stroke:#4c241d;stroke-linecap:round;stroke-linejoin:round;stroke-width:2px"/><path d="M9,29l1.367-2.051a1.968,1.968,0,0,0,.123-1.97l-.856-1.712A1.965,1.965,0,0,1,10,21" style="fill:none;stroke:#4c241d;stroke-linecap:round;stroke-linejoin:round;stroke-width:2px"/><path d="M17,20l1.367-2.051a1.968,1.968,0,0,0,.123-1.97l-.856-1.712A1.965,1.965,0,0,1,18,12" style="fill:none;stroke:#4c241d;stroke-linecap:round;stroke-linejoin:round;stroke-width:2px"/><path d="M44,12l1.367-2.051a1.968,1.968,0,0,0,.123-1.97l-.856-1.712A1.965,1.965,0,0,1,45,4" style="fill:none;stroke:#4c241d;stroke-linecap:round;stroke-linejoin:round;stroke-width:2px"/><path d="M51,23l1.367-2.051a1.968,1.968,0,0,0,.123-1.97l-.856-1.712A1.965,1.965,0,0,1,52,15" style="fill:none;stroke:#4c241d;stroke-linecap:round;stroke-linejoin:round;stroke-width:2px"/><circle cx="58" cy="7" r="3" style="fill:none;stroke:#4c241d;stroke-linecap:round;stroke-linejoin:round;stroke-width:2px"/><line style="fill:none;stroke:#4c241d;stroke-linecap:round;stroke-linejoin:round;stroke-width:2px" x1="9.954" x2="5.84" y1="7.041" y2="11.154"/><line style="fill:none;stroke:#4c241d;stroke-linecap:round;stroke-linejoin:round;stroke-width:2px" x1="5.84" x2="9.954" y1="7.041" y2="11.154"/></g></svg>